<svg width="10" height="10" viewBox="0 0 10 10" fill="none" xmlns="http://www.w3.org/2000/svg">
    <g clip-path="url(#withmere-icon)" fill="#196CE9">
        <path fill-rule="evenodd" clip-rule="evenodd"
              d="M4.76875 1.64523C4.87814 1.58815 5.00853 1.58815 5.11792 1.64523L8.54097 3.43159V6.98959C8.54097 7.13017 8.46282 7.25909 8.33819 7.32413L4.94333 9.09578L1.54848 7.32413C1.42385 7.25909 1.3457 7.13017 1.3457 6.98959V3.43159L4.76875 1.64523ZM7.94446 3.54595L4.94333 1.97978L1.9422 3.54595L4.94333 5.11212L7.94446 3.54595ZM8.16361 3.85724L5.13201 5.43931L5.13201 8.57166L8.16361 6.98959V3.85724ZM4.75466 8.57166L4.75465 5.43931L1.72306 3.85724V6.98959L4.75466 8.57166Z"
        />
        <path fill-rule="evenodd" clip-rule="evenodd"
              d="M4.9652 0.425676L2.37189 1.77902L4.9652 3.13237L7.55851 1.77902L4.9652 0.425676ZM7.87904 1.94629C7.87896 1.94626 7.87889 1.94622 7.87881 1.94618L7.87904 1.94629ZM5.05249 0.0455774L8.05362 1.61175C8.1888 1.6823 8.1888 1.87575 8.05362 1.94629L5.05249 3.51247C4.9978 3.54101 4.9326 3.54101 4.87791 3.51247L1.87678 1.94629C1.7416 1.87575 1.7416 1.6823 1.87678 1.61175L4.87791 0.0455774C4.9326 0.0170341 4.9978 0.0170341 5.05249 0.0455774Z"
        />
        <path fill-rule="evenodd" clip-rule="evenodd"
              d="M9.62266 5.28556L6.96842 6.67071V9.3774L9.62266 7.99226V5.28556ZM10 4.97427V8.10662C10 8.17691 9.96094 8.24137 9.89863 8.27389L6.86704 9.85596C6.74142 9.92152 6.59106 9.83039 6.59106 9.68869V6.55634C6.59106 6.48605 6.63014 6.42159 6.69245 6.38907L9.72404 4.807C9.84966 4.74145 10 4.83258 10 4.97427Z"
        />
        <path fill-rule="evenodd" clip-rule="evenodd"
              d="M3.03159 9.3774L3.03159 6.67071L0.377358 5.28556V7.99226L3.03159 9.3774ZM3.13298 9.85596L0.101387 8.27389C0.0390723 8.24137 0 8.17691 0 8.10662V4.97427C0 4.83258 0.150355 4.74145 0.275972 4.807L3.30757 6.38907C3.36988 6.42159 3.40895 6.48606 3.40895 6.55634L3.40895 9.68869C3.40895 9.83039 3.2586 9.92152 3.13298 9.85596Z"
        />
    </g>
</svg>
